<?xml version="1.0" encoding="utf-8"?><svg viewBox="0 0 502.66 502.66" xmlns="http://www.w3.org/2000/svg" xmlns:xlink="http://www.w3.org/1999/xlink"><style>:root>svg{display:none}:root>svg:target{display:block}</style><svg viewBox="0 0 73 72" id="c-1" xmlns="http://www.w3.org/2000/svg"><g clip-path="url(#aa)"><path d="M56.929 38.995a3.785 3.785 0 0 0-5.357 0l-6.039 6.038c-2.8-.833-8.023-2.727-11.334-6.038-3.311-3.311-5.206-8.536-6.039-11.335l6.039-6.039a3.784 3.784 0 0 0 0-5.357L19.045 1.111a3.784 3.784 0 0 0-5.357 0L3.414 11.385a7.571 7.571 0 0 0-2.22 5.436c.087 5.395 1.516 24.132 16.283 38.9C32.244 70.487 50.98 71.911 56.38 72.002h.106c2 0 3.89-.788 5.323-2.22l10.274-10.274a3.785 3.785 0 0 0 0-5.357L56.929 38.995Zm-.481 25.427c-4.728-.08-20.904-1.348-33.614-14.062C10.082 37.608 8.847 21.375 8.77 16.742l7.596-7.596 9.796 9.797-4.898 4.898a3.789 3.789 0 0 0-1.03 3.455c.09.436 2.314 10.767 8.603 17.056 6.289 6.288 16.62 8.512 17.055 8.603a3.754 3.754 0 0 0 3.456-1.027l4.902-4.898 9.796 9.797-7.6 7.595Z"/></g><defs><clipPath id="aa"><path transform="translate(.5)" d="M0 0h72v72H0z"/></clipPath></defs></svg><svg viewBox="0 0 73 72" id="c-2" xmlns="http://www.w3.org/2000/svg"><path d="M29.5 42C37.497 42 44 35.721 44 28s-6.503-14-14.5-14S15 20.279 15 28s6.503 14 14.5 14Zm0-21c3.998 0 7.25 3.14 7.25 7s-3.252 7-7.25 7-7.25-3.14-7.25-7 3.252-7 7.25-7Z"/><path d="M27.434 70.34a3.564 3.564 0 0 0 4.132 0C32.65 69.577 58.103 51.262 58 28.4 58 12.741 45.214 0 29.5 0S1 12.741 1 28.383C.897 51.263 26.35 69.577 27.434 70.34ZM29.5 7.1c11.788 0 21.375 9.553 21.375 21.318C50.95 44.173 35.243 58.32 29.5 62.96 23.76 58.316 8.05 44.166 8.125 28.4c0-11.747 9.587-21.3 21.375-21.3Z"/></svg><svg viewBox="0 0 73 72" id="c-3" xmlns="http://www.w3.org/2000/svg"><g clip-path="url(#ca)"><path d="M70.348 2.162a2.853 2.853 0 0 0-1.417-.804 2.78 2.78 0 0 0-1.611.114L3.862 25.471c-.548.216-1.019.6-1.351 1.1A3.084 3.084 0 0 0 2 28.277c0 .608.178 1.203.51 1.704.333.5.804.885 1.352 1.1l27.69 11.52L42.63 71.398a2.983 2.983 0 0 0 1.026 1.35 2.81 2.81 0 0 0 1.57.54 2.811 2.811 0 0 0 1.622-.561 2.99 2.99 0 0 0 1.032-1.419L70.954 5.312c.197-.53.244-1.109.137-1.667a3.043 3.043 0 0 0-.743-1.483ZM45.225 61.889 37.177 40.89l13.817-14.37-4.067-4.229-13.932 14.49-20.076-8.49L63.483 9.3 45.225 61.89Z"/></g><defs><clipPath id="ca"><path transform="translate(.5)" d="M0 0h72v72H0z"/></clipPath></defs></svg><svg viewBox="0 0 502.664 502.664" xml:space="preserve" id="icon" xmlns="http://www.w3.org/2000/svg"><path d="M153.821 358.226 0 274.337v-46.463l153.821-83.414v54.574L46.636 250.523l107.185 53.431v54.272zm26.273 29.358L282.103 115.08h32.227L212.084 387.584h-31.99zm168.749-29.358v-54.272l107.164-52.999-107.164-52.59v-53.927l153.821 83.522v46.183l-153.821 84.083z"/></svg><svg viewBox="0 0 48 41" id="serv-1" xmlns="http://www.w3.org/2000/svg"><g clip-path="url(#ea)"><path d="M42.589 8.526h-5.07v-5.07a3.38 3.38 0 0 0-3.38-3.38H13.861a3.38 3.38 0 0 0-3.38 3.38v5.07h-5.07a5.07 5.07 0 0 0-5.07 5.07v23.657a3.38 3.38 0 0 0 3.38 3.38H44.28a3.38 3.38 0 0 0 3.38-3.38V13.595a5.07 5.07 0 0 0-5.07-5.07ZM13.86 3.456h20.278v5.07H13.861v-5.07Zm30.418 33.797H3.721V22.044H17.24v8.45h13.518v-8.45h13.52v15.21ZM20.62 22.044h6.76v5.07h-6.76v-5.07Zm-16.898-3.38v-5.069a1.69 1.69 0 0 1 1.69-1.69h37.177a1.69 1.69 0 0 1 1.69 1.69v5.07H3.721Z"/></g><defs><clipPath id="ea"><path d="M0 0h48v40.709H0z"/></clipPath></defs></svg><svg viewBox="0 0 48 48" id="serv-2" xmlns="http://www.w3.org/2000/svg"><g clip-path="url(#fa)"><path opacity=".15" d="M43.65 13.75H4.35c-.018 0-.03.012-.03.03v5.405c0 3.544 2.94 6.419 6.558 6.419a6.593 6.593 0 0 0 5.706-3.242.993.993 0 0 1 1.716 0 6.576 6.576 0 0 0 5.7 3.242c2.448 0 4.584-1.31 5.706-3.254a.97.97 0 0 1 .834-.48h.036c.348 0 .66.183.834.48a6.586 6.586 0 0 0 5.712 3.254c3.618 0 6.558-2.875 6.558-6.42V13.78c0-.018-.012-.03-.03-.03Z"/><path d="M46.2 9.489V1.897C46.2.847 45.342 0 44.28 0H3.72C2.658 0 1.8.848 1.8 1.897v7.592c-1.002.06-1.8.883-1.8 1.89v7.806a10.38 10.38 0 0 0 .864 4.173c.258.604.576 1.173.936 1.712v20.448a1.91 1.91 0 0 0 1.92 1.897h40.56c1.062 0 1.92-.848 1.92-1.897V25.07c.366-.54.679-1.114.936-1.712.57-1.322.864-2.727.864-4.173V11.38a1.905 1.905 0 0 0-1.8-1.891ZM6.12 4.267h35.76v5.216H6.12V4.267Zm21.72 38.886h-7.68v-6.17h7.68v6.17Zm14.064 0H31.68v-8.066a1.906 1.906 0 0 0-1.92-1.897H18.24c-1.062 0-1.92.848-1.92 1.897v8.066H6.12V28.8c.174.082.354.165.54.236a10.93 10.93 0 0 0 4.224.836 11.004 11.004 0 0 0 6.546-2.146.039.039 0 0 1 .036 0c.716.53 1.496.97 2.322 1.31a10.93 10.93 0 0 0 4.224.836 11.004 11.004 0 0 0 6.546-2.146.039.039 0 0 1 .036 0c.716.53 1.496.97 2.322 1.31a10.93 10.93 0 0 0 4.224.836c1.464 0 2.88-.278 4.224-.835.18-.078.36-.155.54-.238v14.355Zm1.776-23.968c0 3.544-2.94 6.419-6.558 6.419a6.586 6.586 0 0 1-5.712-3.254.963.963 0 0 0-.834-.48h-.036a.97.97 0 0 0-.834.48 6.515 6.515 0 0 1-2.409 2.387 6.617 6.617 0 0 1-3.297.867 6.576 6.576 0 0 1-5.7-3.242.993.993 0 0 0-1.716 0 6.539 6.539 0 0 1-2.413 2.377 6.641 6.641 0 0 1-3.293.865c-3.618 0-6.558-2.875-6.558-6.419V13.78c0-.018.012-.03.03-.03h39.3c.018 0 .03.012.03.03v5.405Z"/></g><defs><clipPath id="fa"><path d="M0 0h48v47.415H0z"/></clipPath></defs></svg><svg viewBox="0 0 48 38" id="serv-3" xmlns="http://www.w3.org/2000/svg"><g clip-path="url(#ga)"><path d="M29.142 8.624h11.997v3.445H29.142V8.624Zm0 8.613h11.997v3.446H29.142v-3.446Zm0 8.613h11.997v3.446H29.142V25.85Z"/><path d="M44.567.011H3.432a3.423 3.423 0 0 0-2.423 1.01A3.458 3.458 0 0 0 .004 3.457v31.007c0 .914.362 1.79 1.005 2.436a3.423 3.423 0 0 0 2.423 1.01h41.135a3.424 3.424 0 0 0 2.423-1.01 3.459 3.459 0 0 0 1.005-2.436V3.457c0-.914-.362-1.79-1.005-2.436a3.422 3.422 0 0 0-2.423-1.01ZM3.432 3.457h18.854v31.007H3.432V3.457Zm22.282 31.007V3.457h18.853l.004 31.007H25.714Z"/></g><defs><clipPath id="ga"><path d="M0 0h48v37.92H0z"/></clipPath></defs></svg></svg>